<mxfile host="app.diagrams.net" agent="Mozilla/5.0 (Windows NT 10.0; Win64; x64) AppleWebKit/537.36 (KHTML, like Gecko) Chrome/133.0.0.0 Safari/537.36" version="26.0.15">
  <diagram name="Page-1" id="aEbWh7Vn1i9dfKEtXOWk">
    <mxGraphModel grid="1" page="1" gridSize="10" guides="1" tooltips="1" connect="1" arrows="1" fold="1" pageScale="1" pageWidth="827" pageHeight="1169" background="#ffffff" math="0" shadow="0">
      <root>
        <mxCell id="0" />
        <mxCell id="1" parent="0" />
        <mxCell id="D3t5_Y5HMr5okKQamg8B-34" style="edgeStyle=orthogonalEdgeStyle;rounded=0;orthogonalLoop=1;jettySize=auto;html=1;exitX=0.5;exitY=1;exitDx=0;exitDy=0;entryX=0.5;entryY=0;entryDx=0;entryDy=0;endArrow=none;startFill=0;" edge="1" parent="1" source="D3t5_Y5HMr5okKQamg8B-1" target="D3t5_Y5HMr5okKQamg8B-20">
          <mxGeometry relative="1" as="geometry">
            <Array as="points">
              <mxPoint x="260" y="540" />
            </Array>
          </mxGeometry>
        </mxCell>
        <mxCell id="D3t5_Y5HMr5okKQamg8B-1" value="Assignatura" style="swimlane;fontStyle=0;childLayout=stackLayout;horizontal=1;startSize=30;horizontalStack=0;resizeParent=1;resizeParentMax=0;resizeLast=0;collapsible=1;marginBottom=0;whiteSpace=wrap;html=1;" vertex="1" parent="1">
          <mxGeometry x="190" y="240" width="140" height="180" as="geometry" />
        </mxCell>
        <mxCell id="D3t5_Y5HMr5okKQamg8B-2" value="Id_Assignatura : Int" style="text;strokeColor=none;fillColor=none;align=left;verticalAlign=middle;spacingLeft=4;spacingRight=4;overflow=hidden;points=[[0,0.5],[1,0.5]];portConstraint=eastwest;rotatable=0;whiteSpace=wrap;html=1;" vertex="1" parent="D3t5_Y5HMr5okKQamg8B-1">
          <mxGeometry y="30" width="140" height="30" as="geometry" />
        </mxCell>
        <mxCell id="D3t5_Y5HMr5okKQamg8B-3" value="Nom : String" style="text;strokeColor=none;fillColor=none;align=left;verticalAlign=middle;spacingLeft=4;spacingRight=4;overflow=hidden;points=[[0,0.5],[1,0.5]];portConstraint=eastwest;rotatable=0;whiteSpace=wrap;html=1;" vertex="1" parent="D3t5_Y5HMr5okKQamg8B-1">
          <mxGeometry y="60" width="140" height="30" as="geometry" />
        </mxCell>
        <mxCell id="D3t5_Y5HMr5okKQamg8B-6" style="edgeStyle=orthogonalEdgeStyle;rounded=0;orthogonalLoop=1;jettySize=auto;html=1;exitX=0;exitY=0.5;exitDx=0;exitDy=0;entryX=0;entryY=0.5;entryDx=0;entryDy=0;endArrow=none;startFill=0;" edge="1" parent="D3t5_Y5HMr5okKQamg8B-1" source="D3t5_Y5HMr5okKQamg8B-4" target="D3t5_Y5HMr5okKQamg8B-3">
          <mxGeometry relative="1" as="geometry">
            <mxPoint x="-80" y="60" as="targetPoint" />
            <Array as="points">
              <mxPoint y="100" />
              <mxPoint x="-79" y="100" />
              <mxPoint x="-79" y="75" />
            </Array>
          </mxGeometry>
        </mxCell>
        <mxCell id="D3t5_Y5HMr5okKQamg8B-4" value="Credits : Int" style="text;strokeColor=none;fillColor=none;align=left;verticalAlign=middle;spacingLeft=4;spacingRight=4;overflow=hidden;points=[[0,0.5],[1,0.5]];portConstraint=eastwest;rotatable=0;whiteSpace=wrap;html=1;" vertex="1" parent="D3t5_Y5HMr5okKQamg8B-1">
          <mxGeometry y="90" width="140" height="30" as="geometry" />
        </mxCell>
        <mxCell id="D3t5_Y5HMr5okKQamg8B-5" value="Obligatoria : Bool" style="text;strokeColor=none;fillColor=none;align=left;verticalAlign=middle;spacingLeft=4;spacingRight=4;overflow=hidden;points=[[0,0.5],[1,0.5]];portConstraint=eastwest;rotatable=0;whiteSpace=wrap;html=1;" vertex="1" parent="D3t5_Y5HMr5okKQamg8B-1">
          <mxGeometry y="120" width="140" height="30" as="geometry" />
        </mxCell>
        <mxCell id="D3t5_Y5HMr5okKQamg8B-33" value="Num_hores : Int" style="text;strokeColor=none;fillColor=none;align=left;verticalAlign=middle;spacingLeft=4;spacingRight=4;overflow=hidden;points=[[0,0.5],[1,0.5]];portConstraint=eastwest;rotatable=0;whiteSpace=wrap;html=1;" vertex="1" parent="D3t5_Y5HMr5okKQamg8B-1">
          <mxGeometry y="150" width="140" height="30" as="geometry" />
        </mxCell>
        <mxCell id="D3t5_Y5HMr5okKQamg8B-7" value="Requereix &amp;gt;" style="text;html=1;align=center;verticalAlign=middle;resizable=0;points=[];autosize=1;strokeColor=none;fillColor=none;" vertex="1" parent="1">
          <mxGeometry x="20" y="318" width="90" height="30" as="geometry" />
        </mxCell>
        <mxCell id="D3t5_Y5HMr5okKQamg8B-8" value="*" style="text;html=1;align=center;verticalAlign=middle;whiteSpace=wrap;rounded=0;" vertex="1" parent="1">
          <mxGeometry x="170" y="348" width="10" height="12" as="geometry" />
        </mxCell>
        <mxCell id="D3t5_Y5HMr5okKQamg8B-9" value="*" style="text;html=1;align=center;verticalAlign=middle;whiteSpace=wrap;rounded=0;" vertex="1" parent="1">
          <mxGeometry x="170" y="290" width="10" height="12" as="geometry" />
        </mxCell>
        <mxCell id="D3t5_Y5HMr5okKQamg8B-10" value="assig." style="text;html=1;align=center;verticalAlign=middle;resizable=0;points=[];autosize=1;strokeColor=none;fillColor=none;" vertex="1" parent="1">
          <mxGeometry x="130" y="348" width="50" height="30" as="geometry" />
        </mxCell>
        <mxCell id="D3t5_Y5HMr5okKQamg8B-11" value="assig. prev" style="text;html=1;align=center;verticalAlign=middle;resizable=0;points=[];autosize=1;strokeColor=none;fillColor=none;" vertex="1" parent="1">
          <mxGeometry x="100" y="288" width="80" height="30" as="geometry" />
        </mxCell>
        <mxCell id="D3t5_Y5HMr5okKQamg8B-14" style="edgeStyle=orthogonalEdgeStyle;rounded=0;orthogonalLoop=1;jettySize=auto;html=1;entryX=1;entryY=0.5;entryDx=0;entryDy=0;endArrow=none;startFill=0;" edge="1" parent="1" target="D3t5_Y5HMr5okKQamg8B-3">
          <mxGeometry relative="1" as="geometry">
            <mxPoint x="390" y="330" as="targetPoint" />
            <mxPoint x="330" y="330" as="sourcePoint" />
            <Array as="points">
              <mxPoint x="330" y="340" />
              <mxPoint x="390" y="340" />
              <mxPoint x="390" y="315" />
            </Array>
          </mxGeometry>
        </mxCell>
        <mxCell id="D3t5_Y5HMr5okKQamg8B-15" value="assig." style="text;html=1;align=center;verticalAlign=middle;resizable=0;points=[];autosize=1;strokeColor=none;fillColor=none;" vertex="1" parent="1">
          <mxGeometry x="340" y="348" width="50" height="30" as="geometry" />
        </mxCell>
        <mxCell id="D3t5_Y5HMr5okKQamg8B-16" value="*" style="text;html=1;align=center;verticalAlign=middle;resizable=0;points=[];autosize=1;strokeColor=none;fillColor=none;" vertex="1" parent="1">
          <mxGeometry x="330" y="339" width="30" height="30" as="geometry" />
        </mxCell>
        <mxCell id="D3t5_Y5HMr5okKQamg8B-17" value="Co-Requereix &amp;gt;" style="text;html=1;align=center;verticalAlign=middle;resizable=0;points=[];autosize=1;strokeColor=none;fillColor=none;" vertex="1" parent="1">
          <mxGeometry x="380" y="318" width="110" height="30" as="geometry" />
        </mxCell>
        <mxCell id="D3t5_Y5HMr5okKQamg8B-18" value="*" style="text;html=1;align=center;verticalAlign=middle;resizable=0;points=[];autosize=1;strokeColor=none;fillColor=none;" vertex="1" parent="1">
          <mxGeometry x="325" y="281" width="30" height="30" as="geometry" />
        </mxCell>
        <mxCell id="D3t5_Y5HMr5okKQamg8B-19" value="co assig." style="text;html=1;align=center;verticalAlign=middle;resizable=0;points=[];autosize=1;strokeColor=none;fillColor=none;" vertex="1" parent="1">
          <mxGeometry x="339" y="290" width="70" height="30" as="geometry" />
        </mxCell>
        <mxCell id="D3t5_Y5HMr5okKQamg8B-20" value="Departament" style="swimlane;fontStyle=0;childLayout=stackLayout;horizontal=1;startSize=30;horizontalStack=0;resizeParent=1;resizeParentMax=0;resizeLast=0;collapsible=1;marginBottom=0;whiteSpace=wrap;html=1;" vertex="1" parent="1">
          <mxGeometry x="185" y="540" width="140" height="60" as="geometry">
            <mxRectangle x="185" y="460" width="110" height="30" as="alternateBounds" />
          </mxGeometry>
        </mxCell>
        <mxCell id="D3t5_Y5HMr5okKQamg8B-21" value="Nom_Departament : String" style="text;strokeColor=none;fillColor=none;align=left;verticalAlign=middle;spacingLeft=4;spacingRight=4;overflow=hidden;points=[[0,0.5],[1,0.5]];portConstraint=eastwest;rotatable=0;whiteSpace=wrap;html=1;" vertex="1" parent="D3t5_Y5HMr5okKQamg8B-20">
          <mxGeometry y="30" width="140" height="30" as="geometry" />
        </mxCell>
        <mxCell id="D3t5_Y5HMr5okKQamg8B-25" value="Esta assignada" style="text;html=1;align=center;verticalAlign=middle;resizable=0;points=[];autosize=1;strokeColor=none;fillColor=none;" vertex="1" parent="1">
          <mxGeometry x="260" y="470" width="110" height="30" as="geometry" />
        </mxCell>
        <mxCell id="D3t5_Y5HMr5okKQamg8B-26" value="1..*" style="text;html=1;align=center;verticalAlign=middle;resizable=0;points=[];autosize=1;strokeColor=none;fillColor=none;" vertex="1" parent="1">
          <mxGeometry x="225" y="420" width="40" height="30" as="geometry" />
        </mxCell>
        <mxCell id="D3t5_Y5HMr5okKQamg8B-27" value="1" style="text;html=1;align=center;verticalAlign=middle;resizable=0;points=[];autosize=1;strokeColor=none;fillColor=none;" vertex="1" parent="1">
          <mxGeometry x="230" y="510" width="30" height="30" as="geometry" />
        </mxCell>
        <mxCell id="D3t5_Y5HMr5okKQamg8B-35" value="&amp;lt;&amp;lt;enum&amp;gt;&amp;gt;&lt;div&gt;NomDia&lt;/div&gt;" style="swimlane;fontStyle=0;childLayout=stackLayout;horizontal=1;startSize=30;horizontalStack=0;resizeParent=1;resizeParentMax=0;resizeLast=0;collapsible=1;marginBottom=0;whiteSpace=wrap;html=1;" vertex="1" parent="1">
          <mxGeometry x="970" y="273" width="140" height="180" as="geometry" />
        </mxCell>
        <mxCell id="D3t5_Y5HMr5okKQamg8B-36" value="Dilluns" style="text;strokeColor=none;fillColor=none;align=left;verticalAlign=middle;spacingLeft=4;spacingRight=4;overflow=hidden;points=[[0,0.5],[1,0.5]];portConstraint=eastwest;rotatable=0;whiteSpace=wrap;html=1;" vertex="1" parent="D3t5_Y5HMr5okKQamg8B-35">
          <mxGeometry y="30" width="140" height="30" as="geometry" />
        </mxCell>
        <mxCell id="D3t5_Y5HMr5okKQamg8B-37" value="Dimarts" style="text;strokeColor=none;fillColor=none;align=left;verticalAlign=middle;spacingLeft=4;spacingRight=4;overflow=hidden;points=[[0,0.5],[1,0.5]];portConstraint=eastwest;rotatable=0;whiteSpace=wrap;html=1;" vertex="1" parent="D3t5_Y5HMr5okKQamg8B-35">
          <mxGeometry y="60" width="140" height="30" as="geometry" />
        </mxCell>
        <mxCell id="D3t5_Y5HMr5okKQamg8B-38" value="Dimecres" style="text;strokeColor=none;fillColor=none;align=left;verticalAlign=middle;spacingLeft=4;spacingRight=4;overflow=hidden;points=[[0,0.5],[1,0.5]];portConstraint=eastwest;rotatable=0;whiteSpace=wrap;html=1;" vertex="1" parent="D3t5_Y5HMr5okKQamg8B-35">
          <mxGeometry y="90" width="140" height="30" as="geometry" />
        </mxCell>
        <mxCell id="D3t5_Y5HMr5okKQamg8B-39" value="Dijous" style="text;strokeColor=none;fillColor=none;align=left;verticalAlign=middle;spacingLeft=4;spacingRight=4;overflow=hidden;points=[[0,0.5],[1,0.5]];portConstraint=eastwest;rotatable=0;whiteSpace=wrap;html=1;" vertex="1" parent="D3t5_Y5HMr5okKQamg8B-35">
          <mxGeometry y="120" width="140" height="30" as="geometry" />
        </mxCell>
        <mxCell id="D3t5_Y5HMr5okKQamg8B-40" value="Divendres" style="text;strokeColor=none;fillColor=none;align=left;verticalAlign=middle;spacingLeft=4;spacingRight=4;overflow=hidden;points=[[0,0.5],[1,0.5]];portConstraint=eastwest;rotatable=0;whiteSpace=wrap;html=1;" vertex="1" parent="D3t5_Y5HMr5okKQamg8B-35">
          <mxGeometry y="150" width="140" height="30" as="geometry" />
        </mxCell>
        <mxCell id="D3t5_Y5HMr5okKQamg8B-41" value="Grup" style="swimlane;fontStyle=0;childLayout=stackLayout;horizontal=1;startSize=30;horizontalStack=0;resizeParent=1;resizeParentMax=0;resizeLast=0;collapsible=1;marginBottom=0;whiteSpace=wrap;html=1;" vertex="1" parent="1">
          <mxGeometry x="540" y="242" width="140" height="60" as="geometry" />
        </mxCell>
        <mxCell id="D3t5_Y5HMr5okKQamg8B-42" value="Id_Grup : Int" style="text;strokeColor=none;fillColor=none;align=left;verticalAlign=middle;spacingLeft=4;spacingRight=4;overflow=hidden;points=[[0,0.5],[1,0.5]];portConstraint=eastwest;rotatable=0;whiteSpace=wrap;html=1;" vertex="1" parent="D3t5_Y5HMr5okKQamg8B-41">
          <mxGeometry y="30" width="140" height="30" as="geometry" />
        </mxCell>
        <mxCell id="6CnovlY-3vmB2AsJmDMi-3" style="edgeStyle=none;curved=1;rounded=0;orthogonalLoop=1;jettySize=auto;html=1;exitX=0;exitY=0.25;exitDx=0;exitDy=0;fontSize=12;startSize=8;endSize=8;endArrow=none;startFill=0;" edge="1" parent="1" source="D3t5_Y5HMr5okKQamg8B-45" target="6CnovlY-3vmB2AsJmDMi-1">
          <mxGeometry relative="1" as="geometry" />
        </mxCell>
        <mxCell id="D3t5_Y5HMr5okKQamg8B-45" value="Aula" style="swimlane;fontStyle=0;childLayout=stackLayout;horizontal=1;startSize=30;horizontalStack=0;resizeParent=1;resizeParentMax=0;resizeLast=0;collapsible=1;marginBottom=0;whiteSpace=wrap;html=1;" vertex="1" parent="1">
          <mxGeometry x="770" y="437" width="140" height="60" as="geometry" />
        </mxCell>
        <mxCell id="D3t5_Y5HMr5okKQamg8B-46" value="Id_Aula : String" style="text;strokeColor=none;fillColor=none;align=left;verticalAlign=middle;spacingLeft=4;spacingRight=4;overflow=hidden;points=[[0,0.5],[1,0.5]];portConstraint=eastwest;rotatable=0;whiteSpace=wrap;html=1;" vertex="1" parent="D3t5_Y5HMr5okKQamg8B-45">
          <mxGeometry y="30" width="140" height="30" as="geometry" />
        </mxCell>
        <mxCell id="D3t5_Y5HMr5okKQamg8B-49" value="Horari" style="swimlane;fontStyle=0;childLayout=stackLayout;horizontal=1;startSize=30;horizontalStack=0;resizeParent=1;resizeParentMax=0;resizeLast=0;collapsible=1;marginBottom=0;whiteSpace=wrap;html=1;" vertex="1" parent="1">
          <mxGeometry x="470" y="392" width="140" height="120" as="geometry" />
        </mxCell>
        <mxCell id="D3t5_Y5HMr5okKQamg8B-51" value="Id_Assignatura : Int" style="text;strokeColor=none;fillColor=none;align=left;verticalAlign=middle;spacingLeft=4;spacingRight=4;overflow=hidden;points=[[0,0.5],[1,0.5]];portConstraint=eastwest;rotatable=0;whiteSpace=wrap;html=1;" vertex="1" parent="D3t5_Y5HMr5okKQamg8B-49">
          <mxGeometry y="30" width="140" height="30" as="geometry" />
        </mxCell>
        <mxCell id="D3t5_Y5HMr5okKQamg8B-52" value="Dies : NomDia [1..5]" style="text;strokeColor=none;fillColor=none;align=left;verticalAlign=middle;spacingLeft=4;spacingRight=4;overflow=hidden;points=[[0,0.5],[1,0.5]];portConstraint=eastwest;rotatable=0;whiteSpace=wrap;html=1;" vertex="1" parent="D3t5_Y5HMr5okKQamg8B-49">
          <mxGeometry y="60" width="140" height="30" as="geometry" />
        </mxCell>
        <mxCell id="D3t5_Y5HMr5okKQamg8B-53" value="Hores : Int [1..24]" style="text;strokeColor=none;fillColor=none;align=left;verticalAlign=middle;spacingLeft=4;spacingRight=4;overflow=hidden;points=[[0,0.5],[1,0.5]];portConstraint=eastwest;rotatable=0;whiteSpace=wrap;html=1;" vertex="1" parent="D3t5_Y5HMr5okKQamg8B-49">
          <mxGeometry y="90" width="140" height="30" as="geometry" />
        </mxCell>
        <mxCell id="D3t5_Y5HMr5okKQamg8B-55" value="S&#39;imparteix" style="text;html=1;align=center;verticalAlign=middle;resizable=0;points=[];autosize=1;strokeColor=none;fillColor=none;" vertex="1" parent="1">
          <mxGeometry x="735" y="320" width="80" height="30" as="geometry" />
        </mxCell>
        <mxCell id="zcSl4qczS58CenO-MxHp-1" style="edgeStyle=orthogonalEdgeStyle;rounded=0;orthogonalLoop=1;jettySize=auto;html=1;exitX=0;exitY=0.25;exitDx=0;exitDy=0;endArrow=none;startFill=0;" edge="1" parent="1" source="D3t5_Y5HMr5okKQamg8B-41">
          <mxGeometry relative="1" as="geometry">
            <mxPoint x="330" y="250" as="targetPoint" />
            <Array as="points">
              <mxPoint x="330" y="257" />
            </Array>
          </mxGeometry>
        </mxCell>
        <mxCell id="zcSl4qczS58CenO-MxHp-2" value="Associat &amp;gt;" style="text;html=1;align=center;verticalAlign=middle;resizable=0;points=[];autosize=1;strokeColor=none;fillColor=none;" vertex="1" parent="1">
          <mxGeometry x="385" y="230" width="80" height="30" as="geometry" />
        </mxCell>
        <mxCell id="zcSl4qczS58CenO-MxHp-3" value="1" style="text;html=1;align=center;verticalAlign=middle;resizable=0;points=[];autosize=1;strokeColor=none;fillColor=none;" vertex="1" parent="1">
          <mxGeometry x="505" y="228" width="30" height="30" as="geometry" />
        </mxCell>
        <mxCell id="zcSl4qczS58CenO-MxHp-4" value="1..*" style="text;html=1;align=center;verticalAlign=middle;resizable=0;points=[];autosize=1;strokeColor=none;fillColor=none;" vertex="1" parent="1">
          <mxGeometry x="330" y="228" width="40" height="30" as="geometry" />
        </mxCell>
        <mxCell id="6CnovlY-3vmB2AsJmDMi-1" value="" style="rhombus;whiteSpace=wrap;html=1;" vertex="1" parent="1">
          <mxGeometry x="655" y="323" width="80" height="80" as="geometry" />
        </mxCell>
        <mxCell id="6CnovlY-3vmB2AsJmDMi-2" style="edgeStyle=none;curved=1;rounded=0;orthogonalLoop=1;jettySize=auto;html=1;exitX=1;exitY=0.5;exitDx=0;exitDy=0;entryX=0.198;entryY=0.739;entryDx=0;entryDy=0;entryPerimeter=0;fontSize=12;startSize=8;endSize=8;endArrow=none;startFill=0;" edge="1" parent="1" target="6CnovlY-3vmB2AsJmDMi-1">
          <mxGeometry relative="1" as="geometry">
            <mxPoint x="610" y="437" as="sourcePoint" />
          </mxGeometry>
        </mxCell>
        <mxCell id="6CnovlY-3vmB2AsJmDMi-4" style="edgeStyle=none;curved=1;rounded=0;orthogonalLoop=1;jettySize=auto;html=1;exitX=0.5;exitY=0;exitDx=0;exitDy=0;entryX=0.993;entryY=1.05;entryDx=0;entryDy=0;entryPerimeter=0;fontSize=12;startSize=8;endSize=8;endArrow=none;startFill=0;" edge="1" parent="1" source="6CnovlY-3vmB2AsJmDMi-1" target="D3t5_Y5HMr5okKQamg8B-42">
          <mxGeometry relative="1" as="geometry" />
        </mxCell>
        <mxCell id="6CnovlY-3vmB2AsJmDMi-5" value="0..1" style="text;html=1;align=center;verticalAlign=middle;resizable=0;points=[];autosize=1;strokeColor=none;fillColor=none;fontSize=16;" vertex="1" parent="1">
          <mxGeometry x="679" y="291" width="50" height="30" as="geometry" />
        </mxCell>
        <mxCell id="6CnovlY-3vmB2AsJmDMi-6" value="0..1" style="text;html=1;align=center;verticalAlign=middle;resizable=0;points=[];autosize=1;strokeColor=none;fillColor=none;fontSize=16;" vertex="1" parent="1">
          <mxGeometry x="735" y="400" width="50" height="30" as="geometry" />
        </mxCell>
        <mxCell id="6CnovlY-3vmB2AsJmDMi-7" value="*" style="text;html=1;align=center;verticalAlign=middle;resizable=0;points=[];autosize=1;strokeColor=none;fillColor=none;fontSize=16;" vertex="1" parent="1">
          <mxGeometry x="609" y="431" width="30" height="30" as="geometry" />
        </mxCell>
      </root>
    </mxGraphModel>
  </diagram>
</mxfile>
